<?xml version="1.0" standalone="no"?><svg xmlns="http://www.w3.org/2000/svg" viewBox="0 0 1440 320"><path fill="#16a34a" fill-opacity="1" d="M0,0L12.6,16C25.3,32,51,64,76,85.3C101.1,107,126,117,152,154.7C176.8,192,202,256,227,277.3C252.6,299,278,277,303,245.3C328.4,213,354,171,379,133.3C404.2,96,429,64,455,69.3C480,75,505,117,531,154.7C555.8,192,581,224,606,213.3C631.6,203,657,149,682,154.7C707.4,160,733,224,758,218.7C783.2,213,808,139,834,128C858.9,117,884,171,909,181.3C934.7,192,960,160,985,160C1010.5,160,1036,192,1061,213.3C1086.3,235,1112,245,1137,245.3C1162.1,245,1187,235,1213,229.3C1237.9,224,1263,224,1288,208C1313.7,192,1339,160,1364,122.7C1389.5,85,1415,43,1427,21.3L1440,0L1440,320L1427.4,320C1414.7,320,1389,320,1364,320C1338.9,320,1314,320,1288,320C1263.2,320,1238,320,1213,320C1187.4,320,1162,320,1137,320C1111.6,320,1086,320,1061,320C1035.8,320,1011,320,985,320C960,320,935,320,909,320C884.2,320,859,320,834,320C808.4,320,783,320,758,320C732.6,320,707,320,682,320C656.8,320,632,320,606,320C581.1,320,556,320,531,320C505.3,320,480,320,455,320C429.5,320,404,320,379,320C353.7,320,328,320,303,320C277.9,320,253,320,227,320C202.1,320,177,320,152,320C126.3,320,101,320,76,320C50.5,320,25,320,13,320L0,320Z"></path></svg>